<svg width="95" height="95" viewBox="0 0 95 95" xmlns="http://www.w3.org/2000/svg"><g fill="none" fill-rule="evenodd"><g><path fill="#000" d="M0 0h95v95H0z"/><path d="M0 95V0h95v95H0zm17-4H4V4h87v87H77V70.993C77 66.58 73.426 63 69 63H25c-4.42 0-8 3.588-8 7.993V91zm11.057 0h3.396V78.496c0-.826-.67-1.496-1.5-1.496h-.397c-.828 0-1.5.674-1.5 1.496V91zm34.49 0h3.396V78.496c0-.826-.67-1.496-1.5-1.496h-.396c-.828 0-1.5.674-1.5 1.496V91zM47 57.3c11.21 0 20.3-9.09 20.3-20.3S58.21 16.7 47 16.7 26.7 25.79 26.7 37 35.79 57.3 47 57.3zm-9.45-15.05c1.74 0 3.15-1.41 3.15-3.15s-1.41-3.15-3.15-3.15-3.15 1.41-3.15 3.15 1.41 3.15 3.15 3.15zm19.95 0c1.74 0 3.15-1.41 3.15-3.15s-1.41-3.15-3.15-3.15-3.15 1.41-3.15 3.15 1.41 3.15 3.15 3.15zM70 37h-.02c.013-.332.02-.665.02-1 0-12.703-10.297-23-23-23S24 23.297 24 36c0 .335.007.668.02 1H24v7c0 1.664-1.346 3-3.006 3h-4.988C14.35 47 13 45.657 13 44V31c0-1.664 1.346-3 3.006-3h4.988c.07 0 .14.002.21.007C24.61 16.997 34.87 9 47 9c12.13 0 22.39 7.998 25.797 19.007.07-.005.14-.007.21-.007h4.987C79.65 28 81 29.343 81 31v13c0 1.664-1.346 3-3.006 3h-4.988C71.35 47 70 45.657 70 44v-7z" fill="#fff"/></g></g></svg>