<svg width="2040" height="2040" viewBox="0 0 2040 2040" xmlns="http://www.w3.org/2000/svg"><g fill="none" fill-rule="evenodd"><g><g transform="translate(-261 -261) translate(261 261)"><circle fill="#fff" cx="1020" cy="1020" r="1020"/><circle fill="#000" cx="1020" cy="1020" r="1000"/><circle fill="#fff" cx="1020" cy="1020" r="905"/><circle fill="#000" cx="1020" cy="1020" r="845"/></g><g><g fill="#0ff"><path d="M457.32 931.146c8.762 0 15.865 7.11 15.865 15.872 0 8.763-7.103 15.866-15.866 15.866-8.764 0-15.867-7.103-15.867-15.866s7.103-15.872 15.866-15.872" id="Fill-1"/><path d="M335.146 1031.106c8.763 0 15.866 7.11 15.866 15.872 0 8.763-7.103 15.866-15.866 15.866s-15.866-7.103-15.866-15.866 7.103-15.872 15.866-15.872" id="Fill-2"/><path d="M630.473 1103.3c8.763 0 15.865 7.108 15.865 15.87 0 8.764-7.102 15.867-15.865 15.867-8.764 0-15.866-7.103-15.866-15.866 0-8.762 7.102-15.87 15.866-15.87" id="Fill-3"/><path d="M668.346 964.466c8.763 0 15.866 7.103 15.866 15.866s-7.103 15.866-15.866 15.866-15.866-7.103-15.866-15.866 7.103-15.866 15.866-15.866" id="Fill-4"/><path d="M734.986 997.786c8.763 0 15.866 7.103 15.866 15.866s-7.103 15.866-15.866 15.866-15.866-7.103-15.866-15.866 7.103-15.866 15.866-15.866" id="Fill-5"/><path d="M940.46 931.146c8.762 0 15.865 7.11 15.865 15.872 0 8.763-7.103 15.866-15.866 15.866-8.764 0-15.867-7.103-15.867-15.866s7.103-15.872 15.866-15.872" id="Fill-6"/><path d="M977.866 1103.3c8.763 0 15.866 7.108 15.866 15.87 0 8.764-7.103 15.867-15.866 15.867S962 1127.934 962 1119.17c0-8.762 7.103-15.87 15.866-15.87" id="Fill-7"/><path d="M1222.866 1031.106c8.763 0 15.866 7.11 15.866 15.872 0 8.763-7.103 15.866-15.866 15.866S1207 1055.74 1207 1046.978s7.103-15.872 15.866-15.872" id="Fill-8"/><path d="M1259 964.466c8.763 0 15.865 7.103 15.865 15.866s-7.102 15.866-15.866 15.866-15.867-7.103-15.867-15.866 7.103-15.866 15.866-15.866" id="Fill-9"/><path d="M1362.146 1031.273c8.763 0 15.866 7.108 15.866 15.87 0 8.765-7.103 15.867-15.866 15.867s-15.866-7.102-15.866-15.866c0-8.763 7.103-15.87 15.866-15.87" id="Fill-10"/><path d="M1501.346 931.146c8.763 0 15.866 7.11 15.866 15.872 0 8.763-7.103 15.866-15.866 15.866s-15.866-7.103-15.866-15.866 7.103-15.872 15.866-15.872" id="Fill-11"/><path d="M1480.133 1064.426c8.763 0 15.866 7.11 15.866 15.872 0 8.763-7.104 15.866-15.867 15.866-8.763 0-15.866-7.103-15.866-15.866s7.103-15.872 15.866-15.872" id="Fill-12"/><path d="M1567.986 1064.426c8.763 0 15.866 7.11 15.866 15.872 0 8.763-7.103 15.866-15.866 15.866s-15.866-7.103-15.866-15.866 7.103-15.872 15.866-15.872" id="Fill-13"/><path d="M1707.146 1031.273c8.763 0 15.866 7.108 15.866 15.87 0 8.765-7.103 15.867-15.866 15.867s-15.866-7.102-15.866-15.866c0-8.763 7.103-15.87 15.866-15.87" id="Fill-14"/><path d="M1601.146 892.273c8.763 0 15.866 7.108 15.866 15.87 0 8.765-7.103 15.867-15.866 15.867s-15.866-7.102-15.866-15.866c0-8.763 7.103-15.87 15.866-15.87" id="Fill-15"/></g><g fill="#FFA9EC"><path d="M429.553 892.273c8.763 0 15.866 7.108 15.866 15.87 0 8.765-7.104 15.867-15.867 15.867-8.763 0-15.866-7.102-15.866-15.866 0-8.763 7.103-15.87 15.866-15.87" id="Fill-1"/><path d="M384.867 1103.3c8.763 0 15.866 7.108 15.866 15.87 0 8.764-7.103 15.867-15.866 15.867-8.764 0-15.866-7.103-15.866-15.866 0-8.762 7.103-15.87 15.867-15.87" id="Fill-2"/><path d="M523.96 997.786c8.763 0 15.866 7.103 15.866 15.866s-7.103 15.866-15.866 15.866-15.866-7.103-15.866-15.866 7.103-15.866 15.866-15.866" id="Fill-3"/><path d="M668.347 931.146c8.763 0 15.865 7.11 15.865 15.872 0 8.763-7.102 15.866-15.865 15.866-8.764 0-15.866-7.103-15.866-15.866s7.103-15.872 15.867-15.872" id="Fill-4"/><path d="M734.987 1103.3c8.763 0 15.865 7.108 15.865 15.87 0 8.764-7.102 15.867-15.865 15.867-8.764 0-15.866-7.103-15.866-15.866 0-8.762 7.103-15.87 15.867-15.87" id="Fill-5"/><path d="M884.48 1103.3c8.763 0 15.866 7.108 15.866 15.87 0 8.764-7.103 15.867-15.866 15.867s-15.866-7.103-15.866-15.866c0-8.762 7.103-15.87 15.866-15.87" id="Fill-6"/><path d="M940.46 1064.426c8.763 0 15.866 7.11 15.866 15.872 0 8.763-7.103 15.866-15.866 15.866s-15.866-7.103-15.866-15.866 7.103-15.872 15.866-15.872" id="Fill-7"/><path d="M940.46 892.273c8.763 0 15.866 7.108 15.866 15.87 0 8.765-7.103 15.867-15.866 15.867s-15.866-7.102-15.866-15.866c0-8.763 7.103-15.87 15.866-15.87" id="Fill-8"/><path d="M1186.36 964.466c8.763 0 15.866 7.103 15.866 15.866s-7.103 15.866-15.866 15.866-15.866-7.103-15.866-15.866 7.103-15.866 15.866-15.866" id="Fill-9"/><path d="M1150.68 1103.273c8.763 0 15.866 7.108 15.866 15.87 0 8.765-7.103 15.867-15.866 15.867s-15.866-7.102-15.866-15.866c0-8.763 7.103-15.87 15.866-15.87" id="Fill-10"/><path d="M1295.68 1064.273c8.763 0 15.866 7.108 15.866 15.87 0 8.765-7.103 15.867-15.866 15.867s-15.866-7.102-15.866-15.866c0-8.763 7.103-15.87 15.866-15.87" id="Fill-11"/><path d="M1362.68 998.273c8.763 0 15.866 7.103 15.866 15.866 0 8.762-7.103 15.865-15.866 15.865s-15.866-7.103-15.866-15.866c0-8.764 7.103-15.867 15.866-15.867" id="Fill-12"/><path d="M1395.867 892.273c8.763 0 15.866 7.108 15.866 15.87 0 8.765-7.103 15.867-15.866 15.867-8.764 0-15.866-7.102-15.866-15.866 0-8.763 7.103-15.87 15.867-15.87" id="Fill-13"/><path d="M1462.68 1032.273c8.763 0 15.866 7.103 15.866 15.866 0 8.762-7.103 15.865-15.866 15.865s-15.866-7.103-15.866-15.866c0-8.764 7.103-15.867 15.866-15.867" id="Fill-14"/><path d="M1601.68 998.273c8.763 0 15.866 7.103 15.866 15.866 0 8.762-7.103 15.865-15.866 15.865s-15.866-7.103-15.866-15.866c0-8.764 7.103-15.867 15.866-15.867" id="Fill-15"/><path d="M1639.68 892.273c8.763 0 15.866 7.108 15.866 15.87 0 8.765-7.103 15.867-15.866 15.867s-15.866-7.102-15.866-15.866c0-8.763 7.103-15.87 15.866-15.87" id="Fill-16"/><path d="M1639.68 1103.273c8.763 0 15.866 7.108 15.866 15.87 0 8.765-7.103 15.867-15.866 15.867s-15.866-7.102-15.866-15.866c0-8.763 7.103-15.87 15.866-15.87" id="Fill-17"/></g><g fill="#98FAB8"><path d="M354.866 892.273c8.763 0 15.866 7.108 15.866 15.87 0 8.765-7.103 15.867-15.866 15.867S339 916.908 339 908.144c0-8.763 7.103-15.87 15.866-15.87" id="Fill-1"/><path d="M457.32 1031.106c8.762 0 15.865 7.11 15.865 15.872 0 8.763-7.103 15.866-15.866 15.866-8.764 0-15.867-7.103-15.867-15.866s7.103-15.872 15.866-15.872" id="Fill-2"/><path d="M348.866 1103.3c8.763 0 15.866 7.108 15.866 15.87 0 8.764-7.103 15.867-15.866 15.867S333 1127.934 333 1119.17c0-8.762 7.103-15.87 15.866-15.87" id="Fill-3"/><path d="M523.96 1064.426c8.762 0 15.865 7.11 15.865 15.872 0 8.763-7.103 15.866-15.866 15.866-8.764 0-15.867-7.103-15.867-15.866s7.103-15.872 15.866-15.872" id="Fill-4"/><path d="M668.346 997.786c8.763 0 15.866 7.103 15.866 15.866s-7.103 15.866-15.866 15.866-15.866-7.103-15.866-15.866 7.103-15.866 15.866-15.866" id="Fill-5"/><path d="M734.986 931.146c8.763 0 15.866 7.11 15.866 15.872 0 8.763-7.103 15.866-15.866 15.866s-15.866-7.103-15.866-15.866 7.103-15.872 15.866-15.872" id="Fill-6"/><path d="M808.866 1103.3c8.763 0 15.866 7.108 15.866 15.87 0 8.764-7.103 15.867-15.866 15.867S793 1127.934 793 1119.17c0-8.762 7.103-15.87 15.866-15.87" id="Fill-7"/><path d="M940.46 1031.106c8.762 0 15.865 7.11 15.865 15.872 0 8.763-7.103 15.866-15.866 15.866-8.764 0-15.867-7.103-15.867-15.866s7.103-15.872 15.866-15.872" id="Fill-8"/><path d="M1090.953 1103.3c8.763 0 15.866 7.108 15.866 15.87 0 8.764-7.104 15.867-15.867 15.867-8.763 0-15.866-7.103-15.866-15.866 0-8.762 7.103-15.87 15.866-15.87" id="Fill-9"/><path d="M1150.806 1031.273c8.763 0 15.866 7.108 15.866 15.87 0 8.765-7.103 15.867-15.866 15.867s-15.866-7.102-15.866-15.866c0-8.763 7.103-15.87 15.866-15.87" id="Fill-10"/><path d="M1245.893 931.146c8.763 0 15.866 7.11 15.866 15.872 0 8.763-7.104 15.866-15.867 15.866-8.763 0-15.866-7.103-15.866-15.866s7.103-15.872 15.866-15.872" id="Fill-11"/><path d="M1362.806 892.273c8.763 0 15.866 7.108 15.866 15.87 0 8.765-7.103 15.867-15.866 15.867s-15.866-7.102-15.866-15.866c0-8.763 7.103-15.87 15.866-15.87" id="Fill-12"/><path d="M1429.706 997.786c8.763 0 15.866 7.103 15.866 15.866s-7.103 15.866-15.866 15.866-15.866-7.103-15.866-15.866 7.103-15.866 15.866-15.866" id="Fill-13"/><path d="M1362.806 1064.273c8.763 0 15.866 7.108 15.866 15.87 0 8.765-7.103 15.867-15.866 15.867s-15.866-7.102-15.866-15.866c0-8.763 7.103-15.87 15.866-15.87" id="Fill-14"/><path d="M1567.806 964.273c8.763 0 15.866 7.103 15.866 15.866 0 8.762-7.103 15.865-15.866 15.865s-15.866-7.103-15.866-15.866c0-8.764 7.103-15.867 15.866-15.867" id="Fill-15"/><path d="M1678.806 892.273c8.763 0 15.866 7.108 15.866 15.87 0 8.765-7.103 15.867-15.866 15.867s-15.866-7.102-15.866-15.866c0-8.763 7.103-15.87 15.866-15.87" id="Fill-16"/><path d="M1678.806 1103.273c8.763 0 15.866 7.108 15.866 15.87 0 8.765-7.103 15.867-15.866 15.867s-15.866-7.102-15.866-15.866c0-8.763 7.103-15.87 15.866-15.87" id="Fill-17"/></g><g fill="#F9FF70"><path d="M335.146 931.146c8.763 0 15.866 7.11 15.866 15.872 0 8.763-7.103 15.866-15.866 15.866s-15.866-7.103-15.866-15.866 7.103-15.872 15.866-15.872" id="Fill-1"/><path d="M457.32 997.786c8.762 0 15.865 7.103 15.865 15.866s-7.103 15.866-15.866 15.866c-8.764 0-15.867-7.103-15.867-15.866s7.103-15.866 15.866-15.866" id="Fill-2"/><path d="M593.866 892.273c8.763 0 15.866 7.108 15.866 15.87 0 8.765-7.103 15.867-15.866 15.867S578 916.908 578 908.144c0-8.763 7.103-15.87 15.866-15.87" id="Fill-3"/><path d="M558.28 1103.3c8.762 0 15.865 7.108 15.865 15.87 0 8.764-7.103 15.867-15.866 15.867-8.764 0-15.867-7.103-15.867-15.866 0-8.762 7.103-15.87 15.866-15.87" id="Fill-4"/><path d="M734.986 1031.106c8.763 0 15.866 7.11 15.866 15.872 0 8.763-7.103 15.866-15.866 15.866s-15.866-7.103-15.866-15.866 7.103-15.872 15.866-15.872" id="Fill-5"/><path d="M845.866 1103.3c8.763 0 15.866 7.108 15.866 15.87 0 8.764-7.103 15.867-15.866 15.867S830 1127.934 830 1119.17c0-8.762 7.103-15.87 15.866-15.87" id="Fill-6"/><path d="M940.46 964.466c8.762 0 15.865 7.103 15.865 15.866s-7.103 15.866-15.866 15.866c-8.764 0-15.867-7.103-15.867-15.866s7.103-15.866 15.866-15.866" id="Fill-7"/><path d="M1014.866 1103.3c8.763 0 15.866 7.108 15.866 15.87 0 8.764-7.103 15.867-15.866 15.867S999 1127.934 999 1119.17c0-8.762 7.103-15.87 15.866-15.87" id="Fill-8"/><path d="M1151.146 1064.273c8.763 0 15.866 7.108 15.866 15.87 0 8.765-7.103 15.867-15.866 15.867s-15.866-7.102-15.866-15.866c0-8.763 7.103-15.87 15.866-15.87" id="Fill-9"/><path d="M1201.466 931.146c8.763 0 15.866 7.11 15.866 15.872 0 8.763-7.103 15.866-15.866 15.866s-15.866-7.103-15.866-15.866 7.103-15.872 15.866-15.872" id="Fill-10"/><path d="M1296.146 1031.273c8.763 0 15.866 7.108 15.866 15.87 0 8.765-7.103 15.867-15.866 15.867s-15.866-7.102-15.866-15.866c0-8.763 7.103-15.87 15.866-15.87" id="Fill-11"/><path d="M1362.146 964.273c8.763 0 15.866 7.103 15.866 15.866 0 8.762-7.103 15.865-15.866 15.865s-15.866-7.103-15.866-15.866c0-8.764 7.103-15.867 15.866-15.867" id="Fill-12"/><path d="M1462.473 892.273c8.763 0 15.866 7.108 15.866 15.87 0 8.765-7.104 15.867-15.867 15.867-8.763 0-15.866-7.102-15.866-15.866 0-8.763 7.103-15.87 15.866-15.87" id="Fill-13"/><path d="M1501.346 1103.3c8.763 0 15.866 7.108 15.866 15.87 0 8.764-7.103 15.867-15.866 15.867s-15.866-7.103-15.866-15.866c0-8.762 7.103-15.87 15.866-15.87" id="Fill-14"/><path d="M1568.146 931.273c8.763 0 15.866 7.108 15.866 15.87 0 8.765-7.103 15.867-15.866 15.867s-15.866-7.102-15.866-15.866c0-8.763 7.103-15.87 15.866-15.87" id="Fill-15"/><path d="M1679.146 998.273c8.763 0 15.866 7.103 15.866 15.866 0 8.762-7.103 15.865-15.866 15.865s-15.866-7.103-15.866-15.866c0-8.764 7.103-15.867 15.866-15.867" id="Fill-16"/><path d="M1601.146 1103.273c8.763 0 15.866 7.108 15.866 15.87 0 8.765-7.103 15.867-15.866 15.867s-15.866-7.102-15.866-15.866c0-8.763 7.103-15.87 15.866-15.87" id="Fill-17"/></g><g fill="#fff"><path d="M318.486 892.273c8.763 0 15.866 7.108 15.866 15.87 0 8.765-7.103 15.867-15.866 15.867s-15.866-7.102-15.866-15.866c0-8.763 7.103-15.87 15.866-15.87"/><path d="M390.866 892.273c8.763 0 15.866 7.108 15.866 15.87 0 8.765-7.103 15.867-15.866 15.867S375 916.908 375 908.144c0-8.763 7.103-15.87 15.866-15.87"/><path d="M335.146 964.466c8.763 0 15.866 7.103 15.866 15.866s-7.103 15.866-15.866 15.866-15.866-7.103-15.866-15.866 7.103-15.866 15.866-15.866"/><path d="M335.146 997.786c8.763 0 15.866 7.103 15.866 15.866s-7.103 15.866-15.866 15.866-15.866-7.103-15.866-15.866 7.103-15.866 15.866-15.866"/><path d="M335.146 1064.426c8.763 0 15.866 7.11 15.866 15.872 0 8.763-7.103 15.866-15.866 15.866s-15.866-7.103-15.866-15.866 7.103-15.872 15.866-15.872"/><path d="M312.933 1103.3c8.763 0 15.866 7.108 15.866 15.87 0 8.764-7.104 15.867-15.867 15.867-8.763 0-15.866-7.103-15.866-15.866 0-8.762 7.103-15.87 15.866-15.87"/><path d="M424 1103.3c8.763 0 15.865 7.108 15.865 15.87 0 8.764-7.102 15.867-15.865 15.867-8.764 0-15.866-7.103-15.866-15.866 0-8.762 7.102-15.87 15.866-15.87"/><path d="M457.32 1064.426c8.763 0 15.865 7.11 15.865 15.872 0 8.763-7.102 15.866-15.865 15.866-8.764 0-15.866-7.103-15.866-15.866s7.102-15.872 15.866-15.872"/><path d="M457.32 964.466c8.763 0 15.865 7.103 15.865 15.866s-7.102 15.866-15.865 15.866c-8.764 0-15.866-7.103-15.866-15.866s7.102-15.866 15.866-15.866"/><path d="M523.96 931.146c8.763 0 15.865 7.11 15.865 15.872 0 8.763-7.102 15.866-15.865 15.866-8.764 0-15.866-7.103-15.866-15.866s7.102-15.872 15.866-15.872"/><path d="M523.96 964.466c8.763 0 15.865 7.103 15.865 15.866s-7.102 15.866-15.865 15.866c-8.764 0-15.866-7.103-15.866-15.866s7.102-15.866 15.866-15.866"/><path d="M523.96 1031.106c8.763 0 15.865 7.11 15.865 15.872 0 8.763-7.102 15.866-15.865 15.866-8.764 0-15.866-7.103-15.866-15.866s7.102-15.872 15.866-15.872"/><path d="M593.866 1103.3c8.763 0 15.866 7.108 15.866 15.87 0 8.764-7.103 15.867-15.866 15.867S578 1127.934 578 1119.17c0-8.762 7.103-15.87 15.866-15.87"/><path d="M668.346 1064.426c8.763 0 15.866 7.11 15.866 15.872 0 8.763-7.103 15.866-15.866 15.866s-15.866-7.103-15.866-15.866 7.103-15.872 15.866-15.872"/><path d="M668.346 1031.106c8.763 0 15.866 7.11 15.866 15.872 0 8.763-7.103 15.866-15.866 15.866s-15.866-7.103-15.866-15.866 7.103-15.872 15.866-15.872"/><path d="M630.473 892.273c8.763 0 15.866 7.108 15.866 15.87 0 8.765-7.104 15.867-15.867 15.867-8.763 0-15.866-7.102-15.866-15.866 0-8.763 7.103-15.87 15.866-15.87"/><path d="M558.28 892.273c8.763 0 15.865 7.108 15.865 15.87 0 8.765-7.102 15.867-15.865 15.867-8.764 0-15.866-7.102-15.866-15.866 0-8.763 7.102-15.87 15.866-15.87"/><path d="M734.986 892.273c8.763 0 15.866 7.108 15.866 15.87 0 8.765-7.103 15.867-15.866 15.867s-15.866-7.102-15.866-15.866c0-8.763 7.103-15.87 15.866-15.87"/><path d="M734.986 964.466c8.763 0 15.866 7.103 15.866 15.866s-7.103 15.866-15.866 15.866-15.866-7.103-15.866-15.866 7.103-15.866 15.866-15.866"/><path d="M734.986 1064.426c8.763 0 15.866 7.11 15.866 15.872 0 8.763-7.103 15.866-15.866 15.866s-15.866-7.103-15.866-15.866 7.103-15.872 15.866-15.872"/><path d="M771.866 1103.3c8.763 0 15.866 7.108 15.866 15.87 0 8.764-7.103 15.867-15.866 15.867S756 1127.934 756 1119.17c0-8.762 7.103-15.87 15.866-15.87"/><path d="M940.46 997.786c8.763 0 15.866 7.103 15.866 15.866s-7.103 15.866-15.866 15.866c-8.764 0-15.866-7.103-15.866-15.866s7.102-15.866 15.866-15.866"/><path d="M940.46 1103.3c8.763 0 15.866 7.108 15.866 15.87 0 8.764-7.103 15.867-15.866 15.867-8.764 0-15.866-7.103-15.866-15.866 0-8.762 7.102-15.87 15.866-15.87"/><path d="M1051.866 1103.3c8.763 0 15.866 7.108 15.866 15.87 0 8.764-7.103 15.867-15.866 15.867S1036 1127.934 1036 1119.17c0-8.762 7.103-15.87 15.866-15.87"/><path d="M1167.146 997.786c8.764 0 15.866 7.103 15.866 15.866s-7.102 15.866-15.866 15.866c-8.763 0-15.866-7.103-15.866-15.866s7.103-15.866 15.866-15.866"/><path d="M1186.806 1031.106c8.764 0 15.866 7.11 15.866 15.872 0 8.763-7.102 15.866-15.866 15.866-8.763 0-15.866-7.103-15.866-15.866s7.103-15.872 15.866-15.872"/><path d="M1260 1031.106c8.763 0 15.866 7.11 15.866 15.872 0 8.763-7.103 15.866-15.866 15.866s-15.866-7.103-15.866-15.866 7.103-15.872 15.866-15.872"/><path d="M1218.126 892.273c8.764 0 15.866 7.108 15.866 15.87 0 8.765-7.102 15.867-15.866 15.867-8.763 0-15.866-7.102-15.866-15.866 0-8.763 7.103-15.87 15.866-15.87"/><path d="M1274.66 997.786c8.763 0 15.866 7.103 15.866 15.866s-7.103 15.866-15.866 15.866-15.866-7.103-15.866-15.866 7.103-15.866 15.866-15.866"/><path d="M1295.933 1103.273c8.763 0 15.866 7.108 15.866 15.87 0 8.765-7.104 15.867-15.867 15.867-8.763 0-15.866-7.102-15.866-15.866 0-8.763 7.103-15.87 15.866-15.87"/><path d="M1362.933 1103.273c8.763 0 15.866 7.108 15.866 15.87 0 8.765-7.104 15.867-15.867 15.867-8.763 0-15.866-7.102-15.866-15.866 0-8.763 7.103-15.87 15.866-15.87"/><path d="M1362.933 931.273c8.763 0 15.866 7.108 15.866 15.87 0 8.765-7.104 15.867-15.867 15.867-8.763 0-15.866-7.102-15.866-15.866 0-8.763 7.103-15.87 15.866-15.87"/><path d="M1428.866 892.273c8.763 0 15.866 7.108 15.866 15.87 0 8.765-7.103 15.867-15.866 15.867S1413 916.908 1413 908.144c0-8.763 7.103-15.87 15.866-15.87"/><path d="M1395.833 997.786c8.763 0 15.866 7.103 15.866 15.866s-7.104 15.866-15.867 15.866c-8.763 0-15.866-7.103-15.866-15.866s7.103-15.866 15.866-15.866"/><path d="M1462.933 998.273c8.763 0 15.866 7.103 15.866 15.866 0 8.762-7.104 15.865-15.867 15.865-8.763 0-15.866-7.103-15.866-15.866 0-8.764 7.103-15.867 15.866-15.867"/><path d="M1501.346 964.466c8.764 0 15.866 7.103 15.866 15.866s-7.102 15.866-15.866 15.866c-8.763 0-15.865-7.103-15.865-15.866s7.103-15.866 15.866-15.866"/><path d="M1706.82 931.146c8.763 0 15.866 7.11 15.866 15.872 0 8.763-7.103 15.866-15.866 15.866s-15.866-7.103-15.866-15.866 7.103-15.872 15.866-15.872"/><path d="M1639.933 998.273c8.763 0 15.866 7.103 15.866 15.866 0 8.762-7.104 15.865-15.867 15.865-8.763 0-15.866-7.103-15.866-15.866 0-8.764 7.103-15.867 15.866-15.867"/><path d="M1706.933 1064.273c8.763 0 15.866 7.108 15.866 15.87 0 8.765-7.104 15.867-15.867 15.867-8.763 0-15.866-7.102-15.866-15.866 0-8.763 7.103-15.87 15.866-15.87"/></g></g></g></g></svg>